<?xml version="1.0" encoding="utf-8"?>
<!-- Generator: Adobe Illustrator 22.1.0, SVG Export Plug-In . SVG Version: 6.00 Build 0)  -->
<svg version="1.1" id="图层_1" xmlns="http://www.w3.org/2000/svg" xmlns:xlink="http://www.w3.org/1999/xlink" x="0px" y="0px"
	 viewBox="0 0 117 110" style="enable-background:new 0 0 117 110;" xml:space="preserve">
<style type="text/css">
	.st0{fill:#E95513;}
	.st1{fill:#FFFFFF;}
</style>
<g>
	<circle class="st0" cx="58.5" cy="55" r="55"/>
	<g>
		<path class="st1" d="M96.6,33.3L34.5,45.9L16,43.2c0.1-0.2,0.4-0.4,0.9-0.5l63.9-10.8c0,0,0.1-0.1,0.7,0l14.4,1
			C95.9,32.9,96.4,32.9,96.6,33.3z"/>
		<path class="st1" d="M34.5,45.9v4.4c-0.1,0-0.3,0-0.5,0l-17.3-3.1c0,0-0.9,0-0.9-0.9v-2.8c0,0,0-0.1,0.2-0.3L34.5,45.9z"/>
		<path class="st1" d="M96.5,35.4c0,0,0.1,0.4-0.4,0.6L35.5,50.1c0,0-0.4,0.1-1,0.1v-4.4l62-12.5L96.5,35.4z"/>
		<path class="st1" d="M30.5,49.6l-3.7,30.7c-0.3,0-0.3,0-0.3,0s-2.1-0.7-2.9-0.9c-0.7-0.3-0.4-1.1-0.4-1.1l4.2-29.1L30.5,49.6z"/>
		<path class="st1" d="M34,50.2c0,0-2.7,28-2.8,28.6c-0.1,0.6-0.7,0.9-0.7,0.9s-2,0.4-3.1,0.5c-0.3,0-0.6,0-0.7,0l3.7-30.7L34,50.2z
			"/>
		<path class="st1" d="M44.6,47.9c0,0-0.5,34.5-0.5,35c0,0.5-0.7,0.9-0.7,0.9s-1.3,0.3-2.5,0.5c-0.3,0.1-0.6,0.1-0.8,0.1l1.1-35.8
			L44.6,47.9z"/>
		<path class="st1" d="M41.2,48.7l-1.1,35.8c-0.6,0-0.8-0.1-0.8-0.1s-2.2-0.6-3.1-0.9c-0.9-0.3-0.5-1.6-0.5-1.6l1.8-32.3L41.2,48.7z
			"/>
		<line class="st1" x1="40.2" y1="84.5" x2="40.2" y2="84.5"/>
		<path class="st1" d="M37.2,55.9l-0.1,1.2l-6.2-1.2c0-0.2,0-0.4,0-0.4s0.3-0.5,0.9-0.6c0.6,0,1.9,0.2,1.9,0.2L37.2,55.9z"/>
		<path class="st1" d="M37.2,57L37,59.1l-5.9-1.3c0,0-0.3-0.1-0.4-0.4c0-0.2,0.1-1.1,0.2-1.6L37.2,57z"/>
		<path class="st1" d="M36.7,65.3l0,0.9l-6.6-1.7c0.1-0.1,0.2-0.2,0.4-0.3c0.5-0.1,1.1-0.2,1.1-0.2L36.7,65.3z"/>
		<path class="st1" d="M36.6,66.2l-0.1,2.5l-6.3-1.6c0,0-0.6-0.1-0.5-0.5c0.1-0.4,0.1-1.7,0.1-1.7s0-0.2,0.2-0.4L36.6,66.2z"/>
		<path class="st1" d="M79.3,39.8L79.1,60c0,0-2.2-0.3-2.5-0.4c-0.3-0.1-0.4-0.5-0.4-0.5l0.4-18.6L79.3,39.8z"/>
		<path class="st1" d="M81.6,58.1c0,0.6-0.2,0.7-0.2,0.7s-0.9,0.8-1.6,1.1c-0.7,0.3-0.7,0.1-0.7,0.1l0.2-20.2l2-0.5L81.6,58.1z"/>
		<path class="st1" d="M90.6,62.1c-0.1,0-0.3,0-0.3,0s-2.1-0.3-2.7-0.5C86.9,61.5,87,61,87,61l-1.7-22.5l2.7-0.6L90.6,62.1z"/>
		<path class="st1" d="M92.6,60.6c0,0-1.5,1.2-1.7,1.4c-0.1,0.1-0.2,0.1-0.3,0.1l-2.6-24.3l2.1-0.5L92.6,60
			C92.7,60.5,92.6,60.6,92.6,60.6z"/>
		<path class="st1" d="M85.8,45.3l-5.5-0.7c0,0-0.3,0-0.3-0.2c0-0.1,0.1-1.5,0.1-1.5l5.6,0.6L85.8,45.3z"/>
		<polygon class="st1" points="85.7,43.5 80.1,42.9 80.8,42.4 81.1,42.4 85.6,42.8 		"/>
		<path class="st1" d="M86.2,49.9l-6-0.8c0,0,0.1-0.1,0.1-0.1c0.2-0.1,0.7-0.4,0.7-0.4l5.1,0.7L86.2,49.9z"/>
		<path class="st1" d="M86.3,51.8l-6.1-0.8c0,0,0,0.1-0.1-0.3s0-1.4,0-1.4s0-0.1,0-0.2l0,0l6,0.8L86.3,51.8z"/>
	</g>
</g>
</svg>
